<?xml version="1.0" encoding="UTF-8"?>
<svg id="Layer_2" data-name="Layer 2" xmlns="http://www.w3.org/2000/svg" viewBox="0 0 1689.19 1149.42">
  <defs>
    <style>
      .cls-1 {
        fill: #606161;
      }

      .cls-2 {
        fill: #1d9348;
      }
    </style>
  </defs>
  <g id="Layer_1-2" data-name="Layer 1">
    <path class="cls-2" d="M926.82,464.93c0-30.86-9.35-68.36-28.77-92.53-21.12-26.29-52.44-30.85-84.03-23.42-48.07,11.31-69.94,57.57-70.17,103.98v387.58s-200.93.04-200.93.04l-.05-393.66c-3.53-50.33-27.67-98.35-83.33-101.08-53.08-2.6-85.55,35.79-96.65,84.24v410.44s-203.96.04-203.96.04V196.08s203.88,0,203.88,0l.5,67.24c23.72-43.43,63.13-73.2,110.3-85.33,93.29-21.45,185.27,13.88,231.39,101.62,31.15-50.57,80.39-85.73,138.38-98.63,34.92-7.76,70.65-8.14,105.84-1.46,78.92,14.98,130.48,71.76,157.44,144.89,16.3,44.22,24.45,90.99,24.45,138.45l-.03,374.48c0,1.37-.13,1.79-.25,2.38-.14.67-1.15.75-2.48.75l-132.46-.28c-.68-9.15,3.37-15.02,4.18-22.65.13-1.21.03-2.3,1.39-2.35,20.94-.77,38.93,3.12,55.17,1.04,7.65-.98,13.84-4.82,16.5-10.88,3.09-7.04,2.17-14.89-2.81-20.58-4.93-5.63-11.7-9.04-19.11-10.09-16.06-4.96-31.86-6.18-48.76-6.35-25.48-.25-50.34,1.27-75.55,5.87l-.06-309.26Z"/>
    <g>
      <path class="cls-1" d="M1588.37,812.93l-250.59-361.32c-2-2.89.06-6.57-.34-9.83l184.02-203.49c10.84-11.99,21.1-23.4,31.12-35.93,1.19-6.37-2.21-13.62-4.31-19.47l-7.49-13.95-248.56-.09-140.13,211.15-9.65,14.08.04,236.3,30.02-32.38,106.4,179.7c19.38,1.7,25.21,21.51,22.43,38.1,14.2,27.05,12.14,8.27,23.82,27.9l251,.05c5.27-6.13,16.17-25.16,12.24-30.83Z"/>
      <path class="cls-1" d="M120.53,943.09c-16.22,15.11-35.22,24.8-56.52,30.85-20.89,5.91-41.99,7.61-64,7.64l17.97,167.68c61.85,1.42,124.82-6.24,180.86-32.11,55.76-25.17,100.21-68.05,127.84-122.76,22.15-43.81,33.91-92.14,35.41-141.79l-202.76.03c-.46,34.46-14.12,66.95-38.79,90.47Z"/>
      <circle class="cls-1" cx="261.36" cy="94.46" r="94.46" transform="translate(9.76 212.48) rotate(-45)"/>
    </g>
    <path class="cls-1" d="M1682.28,979.38l-2.54-55.18-16.25,54.51c-1.04.37-4.89,1.17-5.27-.2l-14.74-52.35-3.09,52.71c-1.62,1.14-3.97.81-6.52.29l3.65-65.21c3.19-.69,6.07-.75,9.04.02l14.74,52.23,15.45-52.2c2.97-.83,5.87-.72,9.04-.05l3.4,65.39c-2.24.34-3.88.31-6.91.05Z"/>
    <path class="cls-1" d="M1612.79,978.81c-1.86,1.11-6.2,1.42-6.95-.26l-.23-57.31c-5.72-1.04-10.58-.12-15.88-.48-.86-2.15-.73-4.54-.34-7.24l39.62.03c.64,2.53.47,4.51-.08,7.05l-16.05.56-.08,57.65Z"/>
    <path class="cls-2" d="M927.02,840.17c-.31-4.4-.24-8.8,0-13.58,8.72-3.28,17.77-4.38,26.23-6.6l-3.54,15.71c-7.14,3.53-14.04,5.94-22.69,4.47Z"/>
    <g>
      <path class="cls-2" d="M1533.04,932.47c-2.83-5.73-23.21,9.66-26.49,14.06-1.25-14.6,1.96-26.43.93-40.8-.25-3.53-3.07-6.47-5.62-7.14-10.36-2.7-9.63,4.01-15.75,10.31-7.07-9.95-19.82-6.49-27.79.83-13.37,12.29-34.28,39.26-32.47,59.18-6.03,2.42-11.66,3.72-17.95,5.79-2.87.95-7.41-1.82-7.82-5.16-3.62-30.06,6.01-45.72,4.44-70.79-.36-5.73-5.17-9.6-9.07-10.71-6.42-1.82-10.59.65-14.75,4.98-8.9,9.26-15.2,19.89-22.02,30.93-1.53-8.57,1.96-23.62-7.66-22.96-7.21.5-5.3,19.31-6.55,23.67-2.77,9.73-4.02,21.22-9.16,30.17-8.59,14.96-41.21,24.56-43.98,15.67-2.2-7.08-1.08-14.6.08-21.73l6.28-38.47c.37-2.27-.01-5.82-2.61-6.49-8.91-2.3-19.22,33.17-19.34,33.79l-4.98,24.61c-.87,4.3-22.89,28.66-28.5,25.17-7.31-7.62,5.46-69.24,8.27-76.18,8.8-21.75,20.24-41.61,26.57-64.59,2.88-10.45,14.79-40.96,5.6-50.47-5.11-5.29-14.21-3.38-18.69,2.06-4.78,5.81-8.18,11.98-10.53,19.31-9.08,28.41-16.13,56.64-22.84,86.47-12.58-6.2-24.13,1.17-32.66,9.22-13.86,13.08-21.17,30.06-26.59,48.27-2.64,4.49-17.65,20.42-23.45,18.75-1.43-6.9-.41-13.14,1.26-19.67l9.75-37.99c.81-3.15-1.29-6.67-2.64-8.49-1.93-2.62-5.19-2.65-8.69-2.85,1.05-6.33-.67-12.22-4.62-16.05-11.14-10.81-27.28-1.44-36.53,9.41-13.72,16.07-20.86,36.42-21.38,57.87-10.44,4.13-20.27,8.76-31.54,10.98l5.67-30.8c2.35-12.75-.67-24.62-7.87-35.19-5.37-7.88-10.5-15.74-16.72-22.86-2.22-2.54-6.76-2.3-9.92-1.44-2.15.59-3.94,3.18-5.35,6.08l-22.11,45.71c-3.98,8.23-7.7,15.97-12.31,23.75-1.69,2.86.97,6.88,3.14,7.59,2.79.9,5.42-.43,7.35-2.92,12.73-16.42,20.57-37.27,32.29-56.38,13.99,19.3,11.55,39.78,6.23,61.57-1.95,7.99-.24,17.05,6.1,22.16,4.34,3.49,10.22,2,14.84.06,11.41-4.77,22.03-9.77,32.22-16.52,5.64,10.97,17.81,13.43,27.28,7,5.62-3.81,10.46-7.71,15.85-12.19.32,7.01.89,12.83,3.18,18.66,2.89,7.36,9.88,10.21,17.6,7.67,7.6-2.51,13.47-8.42,19.54-13.73,3.5,2.94,7.78,6.78,12.75,6.4,12.73-.99,32.23-27.81,41.29-38.2,1.03,14.21-1.37,40.82,10.51,49.81,12.9,9.77,29.29-12.94,37.92-20.78,8.73,26.38,45.45,5.28,59.37-5.2.73,5.25.71,9.14,3.73,11.6,2.61,2.13,6.91,2.65,10.33,1.03,5.02-2.38,7.75-7.31,10.1-12.3,7.42-15.74,14.44-31.25,25.26-45.94-.76,18.21-5.11,40.97,8.62,55.27,11.66,12.15,29.6,2.6,41.45-5.67,17.81.16,40.58-25.1,52.39-37.34.51-.53,1.04-.84,1.29-.66.28.2.51,1.08.52,1.78l.2,25.31c-16.75,20.31-31.54,41.77-42,66.39-5.95,14.01-9.32,28.59-8.13,43.59,1,12.58,10.06,21.44,22.11,23.3,28.21,4.34,45.03-21.13,48.74-45.62,2.4-15.8,3.53-31,2.62-47.01l-2.4-41.8c6.63-8.59,14.06-15.73,21.88-23.32,2.4-2.33,5.59-6.51,3.94-9.84ZM1105.16,960.87c-1.26-19.14,7.03-45.35,23.46-55.91,11.39,1.12,5.94,3.83,11.23,10.41-12.77,11.49-18.79,38.71-34.68,45.49ZM1188.38,964.07c.57-12.28,6.91-22.69,12.19-33.14,6.42-7.39,12.78-15.24,24.2-17.54-10.16,18.12-21.43,34.92-36.39,50.68ZM1446.3,951.53c2.87-10.47,17.38-39.82,30.82-36.97-.07,1.92-.05,3.5,1.06,5.85-9.62,11.31-19.74,21.21-31.88,31.12ZM1478.5,1071.77c-4.22,6.33-12.82,10.25-20.26,6.27-4.07-2.18-3.42-7.94-3.65-11.61,1.7-12.42,5.77-23.42,10.5-34.84,6.39-14.46,12.27-28.56,22.6-41.95,2.12,19.45,2.67,67.22-9.19,82.13Z"/>
      <path class="cls-2" d="M975.12,811.47c-4.44,3.75-6.29,10.14-7.47,15.83l-4.18,20.19c-26.45,11.43-62.58,22.98-90.98,19.51-3.79-.46-8.39-2.23-9.49-6.05-5.7-19.89,18.11-35.44,33.97-41.36,39.43-14.7,81.13-21.68,123.38-20.33,5.14.16,42.96,5.26,38.35-3.21-1.54-2.83-5-4.37-8.11-5.36-15.75-5.04-31.49-6.17-48.15-6.3-26.49-.21-52.11,1.18-78.01,6.48-24.13,4.93-50.62,12.69-68.46,30.19-14.09,13.82-18.71,35.46-8.62,52.97,4.17,7.24,13.16,10.75,21.11,12.29,27.04,5.26,65.52-11.31,91.61-22.77l-9.85,52.24c-17.94-.34-35.07,1.88-52.31,6.24-13.83,3.83-35.97,14.56-40.61,28.93-3.15,9.76-.11,19.75,6.47,27.7,10.76,12.99,26.72,20.95,43.61,22.49,16.4,1.49,30.81-5.43,40.19-18.59,14.85-20.84,21.25-62.98,24.86-89.46l9.67-70.87c.45-3.27,3.74-5.68.85-9.16-1.43-1.72-4.95-4.02-7.83-1.59ZM934.98,963.78c-5.54,10.27-15.48,16.45-27.96,15.81-10.53-1.27-19.95-5.49-26.57-12.93-4.68-5.26-6.27-12.63-2.27-18.43,19.06-15.29,45.41-18.93,69.46-20.82-2.61,13.11-6.49,24.94-12.65,36.37Z"/>
      <circle class="cls-2" cx="1304.01" cy="853.01" r="6.93"/>
    </g>
  </g>
</svg>